<svg width="18" height="18" viewBox="0 0 18 18" fill="none" xmlns="http://www.w3.org/2000/svg">
<path d="M11.5 8.75C11.15 8.75 10.854 8.629 10.612 8.387C10.37 8.145 10.2493 7.84933 10.25 7.5C10.25 7.15 10.371 6.854 10.613 6.612C10.855 6.37 11.1507 6.24933 11.5 6.25C11.85 6.25 12.146 6.371 12.388 6.613C12.63 6.855 12.7507 7.15067 12.75 7.5C12.75 7.85 12.629 8.146 12.387 8.388C12.145 8.63 11.8493 8.75067 11.5 8.75ZM6.5 8.75C6.15 8.75 5.854 8.629 5.612 8.387C5.37 8.145 5.24933 7.84933 5.25 7.5C5.25 7.15 5.371 6.854 5.613 6.612C5.855 6.37 6.15067 6.24933 6.5 6.25C6.85 6.25 7.146 6.371 7.388 6.613C7.63 6.855 7.75067 7.15067 7.75 7.5C7.75 7.85 7.629 8.146 7.387 8.388C7.145 8.63 6.84933 8.75067 6.5 8.75ZM9 14C8 14 7.09567 13.725 6.287 13.175C5.47833 12.625 4.88267 11.9 4.5 11H13.5C13.1167 11.9 12.521 12.625 11.713 13.175C10.905 13.725 10.0007 14 9 14ZM9 18C7.75 18 6.57933 17.7627 5.488 17.288C4.39667 16.8133 3.44667 16.1717 2.638 15.363C1.82933 14.5543 1.18767 13.6043 0.713 12.513C0.238333 11.4217 0.000666667 10.2507 0 9C0 7.75 0.237667 6.57933 0.713 5.488C1.18833 4.39667 1.82967 3.44667 2.637 2.638C3.44567 1.82933 4.39567 1.18767 5.487 0.713C6.57833 0.238333 7.74933 0.000666667 9 0C10.25 0 11.421 0.237667 12.513 0.713C13.605 1.18833 14.555 1.82967 15.363 2.637C16.171 3.44567 16.8127 4.39567 17.288 5.487C17.7633 6.57833 18.0007 7.74933 18 9C18 10.25 17.7627 11.421 17.288 12.513C16.8133 13.605 16.1717 14.555 15.363 15.363C14.5543 16.171 13.6043 16.8127 12.513 17.288C11.4217 17.7633 10.2507 18.0007 9 18ZM9 16C10.9333 16 12.5833 15.3167 13.95 13.95C15.3167 12.5833 16 10.9333 16 9C16 7.06667 15.3167 5.41667 13.95 4.05C12.5833 2.68333 10.9333 2 9 2H8.7C8.6 2 8.5 2.01667 8.4 2.05C8.3 2.15 8.23333 2.25833 8.2 2.375C8.16667 2.49167 8.15 2.61667 8.15 2.75C8.15 3.1 8.27067 3.396 8.512 3.638C8.75333 3.88 9.04933 4.00067 9.4 4C9.55 4 9.68767 3.975 9.813 3.925C9.93833 3.875 10.0673 3.85 10.2 3.85C10.4 3.85 10.5667 3.925 10.7 4.075C10.8333 4.225 10.9 4.4 10.9 4.6C10.9 4.98333 10.7207 5.22933 10.362 5.338C10.0033 5.44667 9.68267 5.50067 9.4 5.5C8.65 5.5 8.00433 5.22933 7.463 4.688C6.92167 4.14667 6.65067 3.50067 6.65 2.75V2.6C6.65 2.55 6.65833 2.48333 6.675 2.4C5.29167 2.9 4.16667 3.74167 3.3 4.925C2.43333 6.10833 2 7.46667 2 9C2 10.9333 2.68333 12.5833 4.05 13.95C5.41667 15.3167 7.06667 16 9 16Z" fill="#603F2C"/>
</svg>
